<svg width="267" height="144" viewBox="0 0 267 144" fill="none" xmlns="http://www.w3.org/2000/svg">
<path d="M166 38C166 47.9411 157.941 56 148 56L121 56C118.239 56 116 53.7614 116 51L116 17C116 11.4772 120.477 7 126 7L161 7C163.761 7 166 9.23858 166 12L166 38Z" fill="#E8F5E9"/>
<path d="M129.312 23.6446C129.071 23.6446 128.847 23.5784 128.649 23.4719V23.4748C128.649 23.8536 128.501 24.2094 128.234 24.4758C127.967 24.743 127.612 24.8903 127.233 24.8903C126.989 24.8903 126.762 24.8224 126.562 24.7131C126.541 25.0597 126.403 25.3836 126.156 25.631C125.889 25.8982 125.533 26.0454 125.154 26.0454C124.402 26.0454 123.791 25.4541 123.747 24.7129C123.514 24.8387 123.251 24.9046 122.98 24.8872C122.24 24.8387 121.66 24.1993 121.66 23.4312V17.0645L120.935 18.3205C120.659 18.8009 120.142 19.0991 119.586 19.0991C119.315 19.0991 119.047 19.028 118.81 18.892C118.514 18.7208 118.303 18.4458 118.215 18.1169C118.127 17.7878 118.172 17.4436 118.343 17.1486C118.343 17.1486 120.715 13.0414 120.86 12.7891C120.877 12.7512 120.926 12.6411 120.968 12.5474C121.007 12.4578 121.042 12.366 121.074 12.2736C121.79 10.2543 123.561 8.99998 125.697 8.99998C128.47 8.99998 130.727 11.4469 130.727 14.4546L130.727 22.2289C130.727 22.6073 130.58 22.9628 130.313 23.2302C130.046 23.4974 129.69 23.6447 129.312 23.6447L129.312 23.6446ZM125.697 9.75212C123.861 9.75212 122.398 10.7888 121.783 12.5251C121.744 12.6354 121.703 12.7457 121.655 12.8531C121.516 13.1643 121.516 13.1643 121.477 13.2091L121.472 13.2046C121.278 13.57 120.703 14.5663 118.994 17.525C118.924 17.6463 118.905 17.7872 118.941 17.922C118.978 18.0567 119.065 18.1703 119.185 18.2398C119.559 18.4544 120.07 18.3159 120.283 17.9448L121.711 15.4734C121.796 15.3261 121.969 15.2538 122.134 15.2986C122.298 15.3426 122.413 15.4918 122.413 15.6619V23.4314C122.413 23.798 122.689 24.1144 123.029 24.1368C123.225 24.1471 123.408 24.0814 123.545 23.9443C123.67 23.8194 123.739 23.6531 123.739 23.4752V18.3938C123.739 18.186 123.907 18.0176 124.115 18.0176C124.323 18.0176 124.492 18.1858 124.492 18.3938L124.491 24.6302C124.491 24.9958 124.789 25.2934 125.155 25.2934C125.332 25.2934 125.499 25.2246 125.624 25.0997C125.749 24.9746 125.818 24.8078 125.818 24.6302V18.3938C125.818 18.186 125.986 18.0176 126.194 18.0176C126.402 18.0176 126.57 18.1858 126.57 18.3938L126.57 23.4168V23.4752C126.57 23.8406 126.868 24.1381 127.233 24.1381C127.411 24.1381 127.577 24.0691 127.703 23.9438C127.828 23.8191 127.897 23.6528 127.897 23.4749V18.3936C127.897 18.1858 128.065 18.0173 128.273 18.0173C128.481 18.0173 128.649 18.1855 128.649 18.3936L128.649 22.2291C128.649 22.595 128.946 22.8925 129.312 22.8925C129.49 22.8925 129.656 22.8235 129.781 22.6989C129.906 22.5736 129.975 22.4067 129.975 22.2291L129.975 14.4548C129.975 11.862 128.056 9.7522 125.697 9.7522L125.697 9.75212Z" fill="#103E13"/>
<path d="M114.529 29.048L119.989 25.7727C120.647 25.3774 121.494 25.5454 121.916 26.1553C122.07 26.3775 122.149 26.6364 122.161 26.9001C122.365 26.7938 122.586 26.7361 122.812 26.7361C122.927 26.7361 123.043 26.7505 123.158 26.779C123.524 26.8706 123.834 27.0999 124.028 27.424C124.223 27.7487 124.279 28.1291 124.188 28.4955C124.103 28.8346 123.897 29.1199 123.61 29.3157C123.811 29.4339 123.984 29.5953 124.107 29.8008C124.301 30.1254 124.358 30.5057 124.267 30.8725C124.175 31.2389 123.946 31.548 123.621 31.7429L123.619 31.744C123.816 31.8621 123.986 32.0218 124.108 32.2242C124.302 32.5488 124.359 32.9293 124.268 33.2961C124.176 33.6627 123.946 33.9718 123.622 34.1664L116.956 38.1657C115.712 38.9119 114.273 39.1694 112.906 38.8902C111.527 38.6084 110.385 37.8157 109.69 36.6579C108.591 34.8261 108.756 32.6619 110.119 31.0101C110.182 30.9347 110.243 30.8579 110.299 30.7783C110.358 30.6942 110.427 30.5952 110.451 30.5613C110.592 30.3092 112.895 26.1603 112.895 26.1608C113.127 25.7412 113.563 25.5037 114.013 25.5039C114.222 25.5039 114.435 25.5555 114.631 25.6644C114.868 25.7968 115.067 25.9898 115.207 26.2223C115.493 26.6994 115.503 27.2964 115.233 27.7796L114.529 29.048ZM114.562 26.6091C114.489 26.4873 114.388 26.3902 114.266 26.3214C114.012 26.181 113.692 26.2724 113.553 26.5252C111.905 29.4937 111.343 30.5054 111.127 30.8654L111.132 30.8666C111.113 30.9269 111.113 30.9269 110.915 31.2103C110.848 31.3062 110.774 31.3983 110.7 31.489C109.527 32.9094 109.391 34.6969 110.335 36.2709C110.92 37.2458 111.886 37.9142 113.057 38.1531C114.24 38.3937 115.486 38.1699 116.568 37.5206L123.235 33.5211C123.388 33.4299 123.495 33.285 123.538 33.1133C123.581 32.9417 123.554 32.7634 123.463 32.6112C123.275 32.2979 122.867 32.1949 122.553 32.3836L119.264 34.3568C119.086 34.4637 118.855 34.4062 118.748 34.2279C118.641 34.0498 118.699 33.8187 118.877 33.7117L122.166 31.7386L123.234 31.0977C123.386 31.0063 123.494 30.8614 123.537 30.6901C123.58 30.5184 123.553 30.3398 123.462 30.1878C123.274 29.8743 122.865 29.7723 122.552 29.9603L118.195 32.5742C118.016 32.6814 117.786 32.6235 117.679 32.4454C117.572 32.2673 117.63 32.0361 117.808 31.9292L123.155 28.7211C123.308 28.6296 123.415 28.485 123.458 28.3132C123.501 28.1417 123.474 27.9634 123.383 27.8112C123.292 27.6592 123.147 27.5518 122.975 27.5089C122.802 27.466 122.625 27.4927 122.473 27.5836L121.483 28.1775C121.483 28.1775 121.483 28.1778 121.483 28.1778H121.482L117.125 30.7917C116.947 30.8992 116.716 30.8412 116.609 30.6629C116.502 30.4848 116.56 30.2536 116.738 30.1467L121.095 27.5327C121.247 27.4413 121.355 27.2964 121.398 27.1251C121.445 26.9371 121.409 26.7449 121.298 26.5837C121.104 26.3036 120.69 26.2291 120.376 26.4179L113.714 30.4146C113.568 30.5017 113.381 30.4805 113.259 30.3625C113.136 30.2442 113.109 30.0583 113.191 29.9097L114.576 27.4137C114.715 27.1642 114.71 26.8561 114.562 26.6092L114.562 26.6091Z" fill="#103E13"/>
<path d="M140.618 36.6577C139.924 37.8157 138.782 38.6083 137.402 38.8901C136.035 39.1688 134.597 38.9117 133.353 38.1656L126.686 34.1661C126.362 33.9715 126.132 33.6624 126.04 33.2953C125.949 32.9289 126.006 32.5484 126.2 32.2243C126.322 32.0216 126.492 31.8619 126.689 31.7439L126.687 31.7427C126.363 31.5481 126.133 31.239 126.042 30.8724C125.95 30.5058 126.007 30.125 126.202 29.8004C126.327 29.5919 126.499 29.4289 126.695 29.3132C126.41 29.1174 126.205 28.8331 126.121 28.4957C126.029 28.1288 126.086 27.7483 126.281 27.4242C126.475 27.0997 126.784 26.8705 127.151 26.7789C127.265 26.7501 127.381 26.736 127.496 26.736C127.722 26.7362 127.944 26.7935 128.147 26.9C128.16 26.6363 128.238 26.3774 128.392 26.1552C128.815 25.5458 129.661 25.3771 130.32 25.7726L135.78 29.0474L135.076 27.7799C134.806 27.296 134.816 26.699 135.102 26.2216C135.242 25.9893 135.441 25.7964 135.679 25.6628C135.875 25.5544 136.087 25.5031 136.296 25.5031C136.745 25.5033 137.182 25.7403 137.414 26.1599C138.223 27.6185 139.751 30.3694 139.858 30.5614C139.881 30.5946 139.95 30.6936 140.01 30.7777C140.066 30.8575 140.127 30.9339 140.19 31.0097C141.553 32.6622 141.717 34.8262 140.618 36.6578L140.618 36.6577ZM139.609 31.4892C139.534 31.3985 139.461 31.3059 139.394 31.2105C139.19 30.9217 139.185 30.9141 139.17 30.8385C138.932 30.4448 138.351 29.3997 136.756 26.5249C136.616 26.2726 136.298 26.1805 136.044 26.3204C135.92 26.3901 135.819 26.4874 135.746 26.6093C135.599 26.8559 135.593 27.1641 135.733 27.4143L137.117 29.9095C137.2 30.0584 137.173 30.2441 137.05 30.3623C136.928 30.4808 136.742 30.5016 136.595 30.4144L129.933 26.4177C129.619 26.2295 129.205 26.3032 129.011 26.5836C128.899 26.7447 128.864 26.937 128.91 27.1247C128.953 27.2963 129.061 27.4409 129.213 27.5323C129.214 27.5326 129.214 27.533 129.214 27.5333L133.57 30.1465C133.748 30.2535 133.806 30.4844 133.699 30.6627C133.592 30.8406 133.362 30.8988 133.183 30.7916L127.835 27.5835C127.683 27.4925 127.505 27.4657 127.333 27.5088C127.161 27.5517 127.017 27.6591 126.926 27.8115C126.834 27.9635 126.808 28.1418 126.85 28.3133C126.893 28.4849 127.001 28.6297 127.153 28.7212L128.194 29.3453L132.5 31.9293C132.679 32.0363 132.736 32.2672 132.629 32.4455C132.522 32.6234 132.292 32.6814 132.113 32.5744L127.756 29.9604C127.443 29.7719 127.035 29.8742 126.846 30.188C126.755 30.3402 126.729 30.5186 126.771 30.6901C126.814 30.8616 126.922 31.0062 127.074 31.0979L128.142 31.7387L131.431 33.7119C131.609 33.8188 131.667 34.0497 131.56 34.2281C131.453 34.4059 131.222 34.4644 131.044 34.3569L127.755 32.3838C127.603 32.2928 127.425 32.266 127.253 32.3091C127.081 32.352 126.936 32.4594 126.845 32.6114C126.754 32.7636 126.727 32.9421 126.77 33.1134C126.812 33.2849 126.92 33.4296 127.073 33.5212L133.74 37.5207C134.821 38.1698 136.069 38.3945 137.251 38.1533C138.421 37.9144 139.388 37.246 139.973 36.2711C140.918 34.6968 140.782 32.9091 139.609 31.4892L139.609 31.4892Z" fill="#103E13"/>
<path d="M82.1025 86.7656H77.7473C77.6678 86.2022 77.5054 85.7017 77.2601 85.2642C77.0149 84.8201 76.7 84.4422 76.3155 84.1307C75.931 83.8191 75.4869 83.5805 74.9831 83.4148C74.486 83.2491 73.9457 83.1662 73.3624 83.1662C72.3084 83.1662 71.3903 83.428 70.6081 83.9517C69.8259 84.4687 69.2194 85.2244 68.7885 86.2188C68.3577 87.2064 68.1422 88.4062 68.1422 89.8182C68.1422 91.2699 68.3577 92.4896 68.7885 93.4773C69.226 94.465 69.8359 95.2107 70.6181 95.7145C71.4003 96.2183 72.3051 96.4702 73.3326 96.4702C73.9093 96.4702 74.4429 96.3939 74.9334 96.2415C75.4306 96.089 75.8714 95.867 76.2559 95.5753C76.6403 95.277 76.9585 94.9157 77.2104 94.4915C77.4689 94.0672 77.6479 93.5833 77.7473 93.0398L82.1025 93.0597C81.9898 93.9943 81.708 94.8958 81.2573 95.7642C80.8132 96.6259 80.2132 97.3982 79.4576 98.081C78.7085 98.7571 77.8136 99.294 76.7729 99.6918C75.7388 100.083 74.5688 100.278 73.263 100.278C71.4467 100.278 69.8226 99.8674 68.3908 99.0455C66.9656 98.2235 65.8387 97.0336 65.0101 95.4759C64.1882 93.9181 63.7772 92.0322 63.7772 89.8182C63.7772 87.5975 64.1948 85.7083 65.03 84.1506C65.8652 82.5928 66.9988 81.4062 68.4306 80.5909C69.8624 79.7689 71.4732 79.358 73.263 79.358C74.4429 79.358 75.5366 79.5237 76.5442 79.8551C77.5584 80.1866 78.4566 80.6705 79.2388 81.3068C80.021 81.9366 80.6574 82.7088 81.1479 83.6236C81.6451 84.5384 81.9632 85.5857 82.1025 86.7656ZM89.3461 79.6364V100H85.1103V79.6364H89.3461ZM102.533 93.4972V84.7273H106.769V100H102.702V97.2259H102.543C102.198 98.1207 101.625 98.84 100.823 99.3835C100.028 99.9271 99.0564 100.199 97.9096 100.199C96.8888 100.199 95.9906 99.9669 95.215 99.5028C94.4395 99.0388 93.8329 98.3793 93.3954 97.5241C92.9645 96.669 92.7458 95.6449 92.7392 94.4517V84.7273H96.975V93.696C96.9816 94.5975 97.2235 95.3101 97.7008 95.8338C98.1781 96.3575 98.8178 96.6193 99.6199 96.6193C100.13 96.6193 100.608 96.5033 101.052 96.2713C101.496 96.0327 101.854 95.6813 102.126 95.2173C102.404 94.7533 102.54 94.1799 102.533 93.4972ZM110.237 100V79.6364H114.472V87.2926H114.602C114.787 86.8816 115.056 86.464 115.407 86.0398C115.765 85.6089 116.229 85.2509 116.799 84.9659C117.376 84.6742 118.092 84.5284 118.947 84.5284C120.061 84.5284 121.088 84.8201 122.029 85.4034C122.971 85.9801 123.723 86.8518 124.286 88.0185C124.85 89.1785 125.132 90.6335 125.132 92.3835C125.132 94.0871 124.856 95.5256 124.306 96.6989C123.763 97.8655 123.02 98.7505 122.079 99.3537C121.144 99.9503 120.097 100.249 118.937 100.249C118.115 100.249 117.416 100.113 116.839 99.8409C116.269 99.5691 115.802 99.2277 115.437 98.8168C115.072 98.3991 114.794 97.9782 114.602 97.554H114.413V100H110.237ZM114.383 92.3636C114.383 93.2718 114.509 94.0639 114.761 94.7401C115.013 95.4162 115.377 95.9432 115.855 96.321C116.332 96.6922 116.912 96.8778 117.595 96.8778C118.284 96.8778 118.867 96.6889 119.345 96.3111C119.822 95.9266 120.183 95.3963 120.428 94.7202C120.68 94.0374 120.806 93.2519 120.806 92.3636C120.806 91.482 120.684 90.7064 120.438 90.0369C120.193 89.3674 119.832 88.8437 119.355 88.4659C118.877 88.0881 118.291 87.8991 117.595 87.8991C116.905 87.8991 116.322 88.0814 115.845 88.446C115.374 88.8106 115.013 89.3277 114.761 89.9972C114.509 90.6667 114.383 91.4555 114.383 92.3636ZM140.665 89.0824L136.787 89.321C136.721 88.9896 136.579 88.6913 136.36 88.4261C136.141 88.1544 135.853 87.9389 135.495 87.7798C135.144 87.6141 134.723 87.5312 134.232 87.5312C133.576 87.5312 133.022 87.6705 132.572 87.9489C132.121 88.2206 131.895 88.5852 131.895 89.0426C131.895 89.4072 132.041 89.7154 132.333 89.9673C132.625 90.2192 133.125 90.4214 133.834 90.5739L136.599 91.1307C138.083 91.4356 139.19 91.9261 139.92 92.6023C140.649 93.2784 141.013 94.1667 141.013 95.267C141.013 96.268 140.718 97.1463 140.128 97.902C139.545 98.6577 138.743 99.2476 137.722 99.6719C136.708 100.089 135.538 100.298 134.212 100.298C132.19 100.298 130.58 99.8774 129.38 99.0355C128.187 98.187 127.487 97.0336 127.282 95.5753L131.448 95.3565C131.574 95.973 131.879 96.4437 132.363 96.7685C132.847 97.0866 133.466 97.2457 134.222 97.2457C134.965 97.2457 135.561 97.1032 136.012 96.8182C136.469 96.5265 136.701 96.152 136.708 95.6946C136.701 95.3101 136.539 94.9953 136.221 94.75C135.903 94.4981 135.412 94.3059 134.749 94.1733L132.104 93.6463C130.613 93.348 129.502 92.831 128.773 92.0952C128.051 91.3594 127.689 90.4214 127.689 89.2812C127.689 88.3002 127.955 87.455 128.485 86.7457C129.022 86.0365 129.774 85.4896 130.742 85.1051C131.716 84.7206 132.857 84.5284 134.162 84.5284C136.091 84.5284 137.609 84.9361 138.716 85.7514C139.83 86.5668 140.48 87.6771 140.665 89.0824ZM153.751 100H149.137L156.167 79.6364H161.715L168.735 100H164.121L159.02 84.2898H158.861L153.751 100ZM153.462 91.9957H164.36V95.3565H153.462V91.9957ZM175.342 91.1705V100H171.106V84.7273H175.143V87.4219H175.322C175.66 86.5336 176.227 85.831 177.023 85.3139C177.818 84.7902 178.782 84.5284 179.916 84.5284C180.977 84.5284 181.901 84.7604 182.69 85.2244C183.479 85.6884 184.092 86.3513 184.53 87.2131C184.967 88.0682 185.186 89.089 185.186 90.2756V100H180.95V91.0312C180.957 90.0966 180.718 89.3674 180.234 88.8438C179.75 88.3134 179.084 88.0483 178.236 88.0483C177.666 88.0483 177.162 88.1709 176.724 88.4162C176.293 88.6615 175.955 89.0194 175.71 89.4901C175.471 89.9541 175.349 90.5142 175.342 91.1705ZM194.152 100.249C192.992 100.249 191.941 99.9503 191 99.3537C190.066 98.7505 189.323 97.8655 188.773 96.6989C188.229 95.5256 187.958 94.0871 187.958 92.3835C187.958 90.6335 188.239 89.1785 188.803 88.0185C189.366 86.8518 190.115 85.9801 191.05 85.4034C191.991 84.8201 193.022 84.5284 194.142 84.5284C194.997 84.5284 195.71 84.6742 196.28 84.9659C196.857 85.2509 197.321 85.6089 197.672 86.0398C198.03 86.464 198.302 86.8816 198.487 87.2926H198.617V79.6364H202.843V100H198.666V97.554H198.487C198.289 97.9782 198.007 98.3991 197.642 98.8168C197.284 99.2277 196.817 99.5691 196.24 99.8409C195.67 100.113 194.974 100.249 194.152 100.249ZM195.494 96.8778C196.177 96.8778 196.754 96.6922 197.225 96.321C197.702 95.9432 198.066 95.4162 198.318 94.7401C198.577 94.0639 198.706 93.2718 198.706 92.3636C198.706 91.4555 198.58 90.6667 198.328 89.9972C198.076 89.3277 197.712 88.8106 197.235 88.446C196.757 88.0814 196.177 87.8991 195.494 87.8991C194.798 87.8991 194.212 88.0881 193.735 88.4659C193.257 88.8437 192.896 89.3674 192.651 90.0369C192.405 90.7064 192.283 91.482 192.283 92.3636C192.283 93.2519 192.405 94.0374 192.651 94.7202C192.903 95.3963 193.264 95.9266 193.735 96.3111C194.212 96.6889 194.798 96.8778 195.494 96.8778ZM98.7337 122.219C98.5945 121.735 98.3989 121.307 98.147 120.936C97.8951 120.558 97.5869 120.24 97.2223 119.982C96.8643 119.716 96.4534 119.514 95.9893 119.375C95.532 119.236 95.0249 119.166 94.468 119.166C93.4273 119.166 92.5125 119.425 91.7237 119.942C90.9415 120.459 90.3317 121.211 89.8942 122.199C89.4567 123.18 89.2379 124.38 89.2379 125.798C89.2379 127.217 89.4534 128.423 89.8842 129.418C90.3151 130.412 90.925 131.171 91.7138 131.695C92.5026 132.212 93.4339 132.47 94.5078 132.47C95.4822 132.47 96.3142 132.298 97.0036 131.953C97.6996 131.602 98.2299 131.108 98.5945 130.472C98.9657 129.835 99.1513 129.083 99.1513 128.214L100.026 128.344H94.7763V125.102H103.298V127.668C103.298 129.457 102.92 130.995 102.164 132.281C101.408 133.561 100.368 134.548 99.0419 135.244C97.7161 135.934 96.1982 136.278 94.4879 136.278C92.5788 136.278 90.9018 135.857 89.4567 135.016C88.0116 134.167 86.8847 132.964 86.076 131.406C85.2739 129.842 84.8729 127.986 84.8729 125.838C84.8729 124.187 85.1115 122.716 85.5888 121.423C86.0727 120.124 86.7488 119.024 87.6172 118.122C88.4856 117.221 89.4964 116.535 90.6499 116.064C91.8033 115.593 93.0528 115.358 94.3984 115.358C95.5518 115.358 96.6257 115.527 97.62 115.865C98.6143 116.196 99.496 116.667 100.265 117.277C101.04 117.887 101.674 118.613 102.164 119.455C102.655 120.29 102.969 121.211 103.109 122.219H98.7337ZM106.452 136V120.727H110.559V123.392H110.718C110.996 122.444 111.463 121.728 112.12 121.244C112.776 120.754 113.532 120.509 114.387 120.509C114.599 120.509 114.828 120.522 115.073 120.548C115.318 120.575 115.533 120.611 115.719 120.658V124.416C115.52 124.357 115.245 124.304 114.894 124.257C114.542 124.211 114.221 124.188 113.929 124.188C113.306 124.188 112.749 124.323 112.259 124.595C111.775 124.86 111.391 125.232 111.105 125.709C110.827 126.186 110.688 126.736 110.688 127.359V136H106.452ZM124.099 136.298C122.554 136.298 121.219 135.97 120.092 135.314C118.971 134.651 118.106 133.73 117.496 132.55C116.887 131.363 116.582 129.988 116.582 128.423C116.582 126.846 116.887 125.467 117.496 124.287C118.106 123.1 118.971 122.179 120.092 121.523C121.219 120.86 122.554 120.528 124.099 120.528C125.643 120.528 126.976 120.86 128.096 121.523C129.223 122.179 130.091 123.1 130.701 124.287C131.311 125.467 131.616 126.846 131.616 128.423C131.616 129.988 131.311 131.363 130.701 132.55C130.091 133.73 129.223 134.651 128.096 135.314C126.976 135.97 125.643 136.298 124.099 136.298ZM124.119 133.017C124.821 133.017 125.408 132.818 125.879 132.42C126.349 132.016 126.704 131.466 126.942 130.77C127.188 130.074 127.31 129.282 127.31 128.393C127.31 127.505 127.188 126.713 126.942 126.017C126.704 125.321 126.349 124.771 125.879 124.366C125.408 123.962 124.821 123.76 124.119 123.76C123.409 123.76 122.813 123.962 122.329 124.366C121.852 124.771 121.49 125.321 121.245 126.017C121.006 126.713 120.887 127.505 120.887 128.393C120.887 129.282 121.006 130.074 121.245 130.77C121.49 131.466 121.852 132.016 122.329 132.42C122.813 132.818 123.409 133.017 124.119 133.017ZM144.164 129.497V120.727H148.4V136H144.333V133.226H144.174C143.829 134.121 143.256 134.84 142.454 135.384C141.658 135.927 140.687 136.199 139.54 136.199C138.52 136.199 137.621 135.967 136.846 135.503C136.07 135.039 135.464 134.379 135.026 133.524C134.595 132.669 134.377 131.645 134.37 130.452V120.727H138.606V129.696C138.612 130.598 138.854 131.31 139.332 131.834C139.809 132.357 140.449 132.619 141.251 132.619C141.761 132.619 142.238 132.503 142.683 132.271C143.127 132.033 143.485 131.681 143.756 131.217C144.035 130.753 144.171 130.18 144.164 129.497ZM151.788 141.727V120.727H155.964V123.293H156.153C156.339 122.882 156.607 122.464 156.958 122.04C157.316 121.609 157.78 121.251 158.35 120.966C158.927 120.674 159.643 120.528 160.498 120.528C161.612 120.528 162.639 120.82 163.581 121.403C164.522 121.98 165.274 122.852 165.838 124.018C166.401 125.179 166.683 126.634 166.683 128.384C166.683 130.087 166.408 131.526 165.858 132.699C165.314 133.866 164.572 134.75 163.63 135.354C162.696 135.95 161.648 136.249 160.488 136.249C159.666 136.249 158.967 136.113 158.39 135.841C157.82 135.569 157.353 135.228 156.988 134.817C156.624 134.399 156.345 133.978 156.153 133.554H156.024V141.727H151.788ZM155.934 128.364C155.934 129.272 156.06 130.064 156.312 130.74C156.564 131.416 156.929 131.943 157.406 132.321C157.883 132.692 158.463 132.878 159.146 132.878C159.835 132.878 160.419 132.689 160.896 132.311C161.373 131.927 161.734 131.396 161.98 130.72C162.232 130.037 162.358 129.252 162.358 128.364C162.358 127.482 162.235 126.706 161.99 126.037C161.744 125.367 161.383 124.844 160.906 124.466C160.429 124.088 159.842 123.899 159.146 123.899C158.457 123.899 157.873 124.081 157.396 124.446C156.925 124.811 156.564 125.328 156.312 125.997C156.06 126.667 155.934 127.455 155.934 128.364ZM182.214 125.082L178.336 125.321C178.27 124.99 178.127 124.691 177.909 124.426C177.69 124.154 177.402 123.939 177.044 123.78C176.692 123.614 176.271 123.531 175.781 123.531C175.125 123.531 174.571 123.67 174.12 123.949C173.67 124.221 173.444 124.585 173.444 125.043C173.444 125.407 173.59 125.715 173.882 125.967C174.173 126.219 174.674 126.421 175.383 126.574L178.147 127.131C179.632 127.436 180.739 127.926 181.468 128.602C182.198 129.278 182.562 130.167 182.562 131.267C182.562 132.268 182.267 133.146 181.677 133.902C181.094 134.658 180.292 135.248 179.271 135.672C178.257 136.089 177.087 136.298 175.761 136.298C173.739 136.298 172.128 135.877 170.929 135.036C169.735 134.187 169.036 133.034 168.831 131.575L172.997 131.357C173.123 131.973 173.428 132.444 173.912 132.768C174.395 133.087 175.015 133.246 175.771 133.246C176.513 133.246 177.11 133.103 177.561 132.818C178.018 132.527 178.25 132.152 178.257 131.695C178.25 131.31 178.088 130.995 177.77 130.75C177.451 130.498 176.961 130.306 176.298 130.173L173.653 129.646C172.162 129.348 171.051 128.831 170.322 128.095C169.6 127.359 169.238 126.421 169.238 125.281C169.238 124.3 169.503 123.455 170.034 122.746C170.571 122.036 171.323 121.49 172.291 121.105C173.265 120.721 174.405 120.528 175.711 120.528C177.64 120.528 179.158 120.936 180.265 121.751C181.379 122.567 182.029 123.677 182.214 125.082Z" fill="#4D4D4D"/>
</svg>
